<svg height="512pt" viewBox="0 -36 512.00001 512" width="512pt" xmlns="http://www.w3.org/2000/svg"><path d="m315.777344 439.183594h-119.554688c-6.9375 0-11.890625-6.714844-9.84375-13.34375l29.875-96.695313h79.492188l29.875 96.695313c2.046875 6.628906-2.90625 13.34375-9.84375 13.34375zm0 0" fill="#a79da8"/><path d="m315.78125 439.183594h-25.917969c6.933594 0 11.886719-6.714844 9.835938-13.339844l-29.863281-96.703125h25.90625l29.875 96.703125c2.054687 6.625-2.902344 13.339844-9.835938 13.339844zm0 0" fill="#928392"/><path d="m512 226.3125v-205.707031c0-11.375-9.21875-20.605469-20.605469-20.605469h-470.789062c-11.386719 0-20.605469 9.230469-20.605469 20.605469v205.707031zm0 0" fill="#6d80d6"/><path d="m127.226562 223.214844c-4.265624 0-7.726562-3.457032-7.726562-7.726563v-138.574219c0-4.269531 3.460938-7.726562 7.726562-7.726562 4.265626 0 7.726563 3.460938 7.726563 7.726562v138.574219c0 4.269531-3.460937 7.726563-7.726563 7.726563zm0 0" fill="#5169ce"/><g fill="#ccc6cc"><path d="m96.6875 45.257812c-4.265625 0-7.726562-3.460937-7.726562-7.726562v-.121094c0-4.265625 3.460937-7.722656 7.726562-7.722656s7.726562 3.457031 7.726562 7.722656v.121094c0 4.265625-3.460937 7.726562-7.726562 7.726562zm0 0"/><path d="m70.566406 45.257812c-4.265625 0-7.726562-3.460937-7.726562-7.726562v-.121094c0-4.265625 3.460937-7.722656 7.726562-7.722656 4.269532 0 7.726563 3.457031 7.726563 7.722656v.121094c0 4.265625-3.457031 7.726562-7.726563 7.726562zm0 0"/><path d="m44.449219 45.257812c-4.269531 0-7.726563-3.460937-7.726563-7.726562v-.121094c0-4.265625 3.457032-7.722656 7.726563-7.722656 4.265625 0 7.726562 3.457031 7.726562 7.722656v.121094c0 4.265625-3.460937 7.726562-7.726562 7.726562zm0 0"/></g><path d="m481.289062 20.609375v205.707031h30.710938v-205.707031c0-11.382813-9.21875-20.6015625-20.605469-20.6015625h-30.707031c11.382812 0 20.601562 9.2187495 20.601562 20.6015625zm0 0" fill="#5169ce"/><path d="m0 215.492188h512v81.34375h-512zm0 0" fill="#ffdbaa"/><path d="m481.289062 215.492188h30.710938v81.34375h-30.710938zm0 0" fill="#ffc783"/><path d="m491.394531 347.496094h-470.789062c-11.378907 0-20.605469-9.222656-20.605469-20.601563v-46.21875h512v46.21875c0 11.378907-9.226562 20.601563-20.605469 20.601563zm0 0" fill="#ccc6cc"/><path d="m512 280.679688v46.214843c0 11.382813-9.21875 20.601563-20.605469 20.601563h-30.707031c11.382812 0 20.601562-9.21875 20.601562-20.601563v-46.214843zm0 0" fill="#b6aeb7"/><path d="m35.96875 114.621094c-4.265625 0-7.726562-3.457032-7.726562-7.726563v-.105469c0-4.269531 3.460937-7.726562 7.726562-7.726562s7.726562 3.460938 7.726562 7.726562v.105469c0 4.269531-3.460937 7.726563-7.726562 7.726563zm0 0" fill="#ffdbaa"/><path d="m87.476562 114.515625h-23.089843c-4.269531 0-7.726563-3.460937-7.726563-7.726563 0-4.265624 3.457032-7.726562 7.726563-7.726562h23.089843c4.269532 0 7.726563 3.460938 7.726563 7.726562 0 4.265626-3.457031 7.726563-7.726563 7.726563zm0 0" fill="#e2e0e2"/><path d="m35.96875 144.496094c-4.265625 0-7.726562-3.457032-7.726562-7.726563v-.105469c0-4.269531 3.460937-7.726562 7.726562-7.726562s7.726562 3.460938 7.726562 7.726562v.105469c0 4.269531-3.460937 7.726563-7.726562 7.726563zm0 0" fill="#ffdbaa"/><path d="m87.476562 144.390625h-23.089843c-4.269531 0-7.726563-3.457031-7.726563-7.726563 0-4.265624 3.457032-7.726562 7.726563-7.726562h23.089843c4.269532 0 7.726563 3.460938 7.726563 7.726562 0 4.269532-3.457031 7.726563-7.726563 7.726563zm0 0" fill="#e2e0e2"/><path d="m35.96875 174.371094c-4.265625 0-7.726562-3.457032-7.726562-7.722656v-.109376c0-4.265624 3.460937-7.726562 7.726562-7.726562s7.726562 3.460938 7.726562 7.726562v.109376c0 4.265624-3.460937 7.722656-7.726562 7.722656zm0 0" fill="#ffdbaa"/><path d="m87.476562 174.265625h-23.089843c-4.269531 0-7.726563-3.457031-7.726563-7.726563 0-4.265624 3.457032-7.726562 7.726563-7.726562h23.089843c4.269532 0 7.726563 3.460938 7.726563 7.726562 0 4.269532-3.457031 7.726563-7.726563 7.726563zm0 0" fill="#e2e0e2"/><path d="m193.027344 104.570312h-31.214844c-4.265625 0-7.726562-3.457031-7.726562-7.726562 0-4.265625 3.460937-7.726562 7.726562-7.726562h31.214844c4.269531 0 7.726562 3.460937 7.726562 7.726562 0 4.269531-3.457031 7.726562-7.726562 7.726562zm0 0" fill="#ffc783"/><path d="m361.699219 150.402344h-199.886719c-4.265625 0-7.726562-3.457032-7.726562-7.722656 0-4.269532 3.460937-7.726563 7.726562-7.726563h199.886719c4.265625 0 7.726562 3.457031 7.726562 7.726563 0 4.265624-3.460937 7.722656-7.726562 7.722656zm0 0" fill="#e2e0e2"/><path d="m277.363281 104.570312h-31.214843c-4.269532 0-7.726563-3.457031-7.726563-7.726562 0-4.265625 3.457031-7.726562 7.726563-7.726562h31.214843c4.269531 0 7.726563 3.460937 7.726563 7.726562 0 4.269531-3.457032 7.726562-7.726563 7.726562zm0 0" fill="#ffc783"/><path d="m361.699219 104.570312h-31.214844c-4.269531 0-7.726563-3.457031-7.726563-7.726562 0-4.265625 3.457032-7.726562 7.726563-7.726562h31.214844c4.265625 0 7.726562 3.460937 7.726562 7.726562 0 4.269531-3.460937 7.726562-7.726562 7.726562zm0 0" fill="#ffc783"/><path d="m446.03125 104.570312h-31.214844c-4.265625 0-7.722656-3.457031-7.722656-7.726562 0-4.265625 3.457031-7.726562 7.722656-7.726562h31.214844c4.269531 0 7.726562 3.460937 7.726562 7.726562 0 4.269531-3.457031 7.726562-7.726562 7.726562zm0 0" fill="#ffc783"/><path d="m414.816406 180.871094h-253.003906c-4.265625 0-7.726562-3.460938-7.726562-7.726563s3.460937-7.726562 7.726562-7.726562h253.003906c4.269532 0 7.726563 3.460937 7.726563 7.726562s-3.457031 7.726563-7.726563 7.726563zm0 0" fill="#e2e0e2"/><path d="m205.078125 256.558594h-163.367187c-4.269532 0-7.726563-3.460938-7.726563-7.726563 0-4.269531 3.457031-7.726562 7.726563-7.726562h163.367187c4.269531 0 7.726563 3.460937 7.726563 7.726562s-3.457032 7.726563-7.726563 7.726563zm0 0" fill="#ffad5c"/></svg>