<svg id="Layer_1" enable-background="new 0 0 128 128" height="512" viewBox="0 0 128 128" width="512" xmlns="http://www.w3.org/2000/svg"><g><path d="m122.221 108.312-30.031-30.031c-2.283-2.282-5.627-2.865-8.456-1.756l-6.026-6.025c11.77-15.315 10.657-37.412-3.36-51.428-15.24-15.24-40.035-15.24-55.275 0-15.24 15.239-15.239 40.035.001 55.274 7.619 7.619 17.628 11.429 27.636 11.429 8.404 0 16.801-2.697 23.791-8.068l6.026 6.026c-1.109 2.828-.526 6.172 1.756 8.454l30.032 30.032c1.536 1.535 3.553 2.303 5.57 2.303 2.018 0 4.035-.768 5.571-2.303l2.766-2.767c1.483-1.483 2.299-3.461 2.299-5.57-.001-2.109-.817-4.088-2.3-5.57z" fill="#e6e7e8"/><g><g><path d="m74.855 77.62 2.767-2.767c.517-.517 1.1-.931 1.72-1.247l-7.189-7.189c-.83 1.05-1.739 2.053-2.711 3.024-.972.972-1.974 1.881-3.024 2.711l7.19 7.19c.316-.621.73-1.204 1.247-1.722z" fill="#ffd7e5"/><path d="m69.447 69.446c-14.834 14.834-38.967 14.834-53.801 0s-14.835-38.968-.001-53.802 38.97-14.834 53.804 0 14.832 38.969-.002 53.802z" fill="#fa759e"/><path d="m15.645 18.767c14.834-14.834 38.97-14.834 53.804 0 7.02 7.02 10.712 16.123 11.087 25.337.417-10.255-3.275-20.648-11.087-28.46-14.834-14.834-38.97-14.834-53.804 0-7.813 7.812-11.505 18.204-11.088 28.459.376-9.214 4.068-18.317 11.088-25.336z" fill="#fff"/><circle cx="42.547" cy="42.545" fill="#d4fbff" r="29.18"/><g><path d="m61.326 41.823c-3.492-2.647-10.698-7.192-19.021-7.192s-15.529 4.544-19.021 7.192c-1.234.936-1.234 2.776 0 3.712 3.492 2.647 10.698 7.192 19.021 7.192s15.529-4.544 19.021-7.192c1.234-.936 1.234-2.776 0-3.712z" fill="#fff"/><circle cx="42.305" cy="43.679" fill="#0089ef" r="7.789"/></g><g><path d="m117.321 104.885-30.031-30.032c-2.659-2.659-7.009-2.659-9.668 0l-2.767 2.767c-2.659 2.659-2.659 7.009 0 9.668l30.031 30.031c2.659 2.659 7.009 2.659 9.668 0l2.767-2.767c2.659-2.658 2.659-7.009 0-9.667z" fill="#6dc9f7"/><g fill="#3a2c60"><path d="m42.305 33.631c-8.59 0-15.982 4.633-19.625 7.395-.84.636-1.321 1.603-1.321 2.652s.481 2.016 1.321 2.653c3.642 2.762 11.034 7.395 19.625 7.395 8.589 0 15.981-4.633 19.625-7.395.84-.637 1.321-1.604 1.321-2.653s-.481-2.016-1.321-2.652c-3.643-2.761-11.037-7.395-19.625-7.395zm18.416 11.107c-3.442 2.61-10.413 6.988-18.416 6.988-8.006 0-14.975-4.378-18.416-6.988-.337-.255-.53-.642-.53-1.06 0-.417.193-.803.53-1.059 3.441-2.61 10.411-6.989 18.416-6.989 8.003 0 14.974 4.379 18.416 6.989.337.255.53.641.53 1.059.001.419-.193.805-.53 1.06z"/><path d="m42.305 40.336c-1.846 0-3.343 1.497-3.343 3.343s1.497 3.343 3.343 3.343 3.343-1.497 3.343-3.343-1.496-3.343-3.343-3.343z"/><path d="m69.612 53.52c-.524-.235-1.142.001-1.375.525-1.399 3.127-3.349 5.953-5.793 8.397-5.314 5.314-12.381 8.242-19.896 8.242-7.517 0-14.583-2.927-19.897-8.242-5.315-5.315-8.242-12.381-8.242-19.897s2.927-14.583 8.242-19.897c10.97-10.97 28.822-10.972 39.794 0 4.759 4.759 7.657 11.071 8.161 17.772.043.573.549 1 1.116.96.573-.043 1.003-.543.96-1.116-.541-7.198-3.654-13.977-8.765-19.088-11.784-11.784-30.957-11.782-42.739 0-5.708 5.708-8.852 13.297-8.852 21.369s3.144 15.661 8.852 21.369c5.892 5.892 13.631 8.837 21.37 8.837 7.738 0 15.478-2.946 21.369-8.837 2.624-2.624 4.717-5.658 6.221-9.018.234-.525-.001-1.141-.526-1.376z"/><path d="m71.741 43.062c-.604-.021-1.064.411-1.095.984-.121 2.257-.511 4.494-1.161 6.647-.166.551.146 1.131.696 1.297.101.03.201.044.301.044.447 0 .86-.29.997-.74.697-2.313 1.116-4.714 1.245-7.139.032-.572-.409-1.062-.983-1.093z"/><path d="m120.356 109.718c0-2.109-.816-4.087-2.299-5.569l-30.031-30.031c-1.482-1.482-3.461-2.299-5.57-2.299-1.005 0-1.978.191-2.884.545l-6.025-6.025c5.227-6.787 8.067-15.066 8.067-23.793 0-10.452-4.059-20.267-11.43-27.637-7.371-7.371-17.186-11.43-27.638-11.43s-20.268 4.059-27.639 11.43c-15.237 15.238-15.236 40.034.003 55.273 7.62 7.619 17.628 11.429 27.637 11.429 8.403 0 16.8-2.697 23.79-8.068l6.027 6.027c-1.109 2.828-.526 6.172 1.755 8.454l30.031 30.032c1.483 1.482 3.461 2.299 5.57 2.299s4.088-.817 5.57-2.299l2.767-2.767c1.483-1.483 2.299-3.461 2.299-5.571zm-103.973-41.008c-14.429-14.427-14.429-37.902-.002-52.33 6.977-6.978 16.27-10.82 26.166-10.82s19.188 3.842 26.165 10.82c6.978 6.978 10.82 16.27 10.82 26.165 0 9.896-3.843 19.188-10.821 26.166-14.426 14.425-37.903 14.425-52.328-.001zm51.578 3.513c.758-.65 1.504-1.323 2.222-2.041.715-.715 1.39-1.461 2.042-2.22l5.464 5.464c-.28.213-.552.439-.804.692l-2.767 2.767c-.254.254-.48.526-.692.805zm48.624 41.593-2.767 2.768c-1.089 1.089-2.544 1.689-4.098 1.689-1.553 0-3.009-.6-4.098-1.689l-30.031-30.032c-2.26-2.259-2.26-5.936 0-8.196l2.767-2.766c1.089-1.089 2.545-1.689 4.098-1.689 1.554 0 3.009.6 4.098 1.689l30.031 30.032c1.09 1.089 1.689 2.544 1.689 4.097 0 1.552-.6 3.008-1.689 4.097z"/></g></g></g></g></g></svg>